Motion_pu06
version=1
nRows=15
nColumns=43
inDegrees=yes
endheader
time	pelvis_tilt	pelvis_list	pelvis_rotation	pelvis_tx	pelvis_ty	pelvis_tz	hip_flexion_r	hip_adduction_r	hip_rotation_r	knee_angle_r	ankle_angle_r	subtalar_angle_r	mtp_angle_r	hip_flexion_l	hip_adduction_l	hip_rotation_l	knee_angle_l	ankle_angle_l	subtalar_angle_l	mtp_angle_l	lumbar_extension	lumbar_bending	lumbar_rotation	neck_flexion	neck_lateral_bending	neck_rotation	arm_flex_r	arm_add_r	arm_rot_r	elbow_flex_r	pro_sup_r	wrist_flex_r	wrist_dev_r	hand_finger_flex_r	arm_flex_l	arm_add_l	arm_rot_l	elbow_flex_l	pro_sup_l	wrist_flex_l	wrist_dev_l	hand_finger_flex_l
      0.00250000	      0.19953140	     -1.04620533	    -90.94496978	     -0.05316933	      0.93943408	      0.63347191	     -9.14337987	     -5.77113175	     -4.20330499	    -11.73831319	     15.70999966	      3.84514194	      7.80597128	     15.68088494	     -6.84451361	    -12.67589080	    -19.26601703	      8.34650859	     20.45015289	      8.28016679	    -10.48840882	      2.15051554	     11.90466632	     32.45186626	     -6.33080217	    -10.27460210	    -46.45899103	   -131.41186160	   -131.72858917	     80.73255919	    118.68271160	     -5.06555615	     -8.23906504	    -17.30916900	    123.42604543	    -32.33323791	     39.06105413	     59.68964325	    117.14704170	    -25.14420943	      4.02561267	    -18.66231688
      0.00500000	      0.86665651	     -1.55783918	    -89.94649787	     -0.04971968	      0.94036697	      0.63190418	     -9.29235116	     -6.58630405	     -6.01532698	    -12.79042055	     16.62923616	      4.58785140	      8.24380194	     15.58023178	     -5.40199796	     -9.75072515	    -19.21880684	      5.47991259	     17.50823841	      8.71636986	    -11.53384711	      1.64995858	     11.29819515	     33.44174982	     -7.03780913	    -11.41105981	    -44.19770128	   -131.34453633	   -129.93870111	     80.09996807	    119.80885449	     -6.34195645	     -7.49128578	    -19.08572794	    123.88752888	    -31.18039964	     36.90708094	     58.73278678	    120.60028170	    -22.24493045	      3.45683718	    -18.96704233
      0.00750000	      0.83359779	     -1.49760517	    -89.96026910	     -0.04908464	      0.94065156	      0.63444373	     -9.35852603	     -6.56989254	     -6.01421146	    -12.82929258	     16.60744489	      4.59791653	      8.24278525	     15.44587197	     -5.38646554	     -9.74347261	    -19.28553509	      5.46677363	     17.49646544	      8.71889213	    -11.34299506	      1.62891556	     11.28838922	     33.44298242	     -7.04742504	    -11.40524286	    -44.10030980	   -131.48377137	   -129.98579027	     80.01405930	    119.80599886	     -6.33399252	     -7.48086368	    -19.08809982	    123.95888401	    -30.99306243	     36.93710571	     58.77794229	    120.61320068	    -22.23027813	      3.44928696	    -18.96892426
      0.01000000	      0.88448131	     -1.35234793	    -89.91941953	     -0.04850218	      0.93979231	      0.63663539	     -9.36455718	     -6.69480935	     -6.16761077	    -12.79826598	     16.25692068	      4.88677503	      8.26517215	     15.49968719	     -5.26858256	     -9.66828024	    -19.29243651	      5.52449139	     16.97772107	      8.88110688	    -11.02690854	      1.61691447	     11.31577013	     33.00368804	     -7.48583399	    -11.16695784	    -43.60855919	   -131.93052764	   -129.48919946	     79.06577489	    119.62333783	     -5.87825072	     -7.31059566	    -19.18756475	    124.61559805	    -30.45704118	     37.46587780	     57.66579668	    121.05396088	    -21.51042900	      3.79945865	    -19.04500448
      0.01250000	      0.84423480	     -1.29646405	    -89.94221839	     -0.04770424	      0.94017583	      0.63903423	     -9.42179353	     -6.68399693	     -6.16965399	    -12.84018289	     16.24621218	      4.89085100	      8.26576278	     15.37613436	     -5.23852948	     -9.65800817	    -19.35924639	      5.50415295	     16.97105676	      8.88257379	    -10.85268033	      1.60796378	     11.31183840	     33.02469523	     -7.47371789	    -11.17015734	    -43.50585144	   -132.07360485	   -129.54435452	     78.96184126	    119.61977337	     -5.87304312	     -7.29474197	    -19.19152763	    124.68745705	    -30.27283060	     37.48819024	     57.72305493	    121.06616674	    -21.50103971	      3.78909254	    -19.04871361
      0.01500000	      0.86749902	     -1.24750308	    -90.01409909	     -0.04712241	      0.93993969	      0.64133444	     -9.41860316	     -6.80482976	     -6.22098299	    -12.98876462	     16.16260201	      4.93133826	      8.28104957	     15.32759518	     -5.19243104	     -9.59449749	    -19.41132174	      5.40887200	     16.83718713	      8.91970594	    -10.61236747	      1.66510416	     11.31955717	     33.15195838	     -7.29687368	    -11.20886325	    -43.36368576	   -132.75498681	   -129.42389253	     77.94452991	    119.54582944	     -5.70104989	     -7.12924303	    -19.22629718	    124.93115655	    -29.94270214	     37.59749299	     56.96871288	    121.17647432	    -21.25422909	      4.00440353	    -19.07439944
      0.01750000	      0.90643979	     -1.17161932	    -90.03964469	     -0.04652156	      0.93982962	      0.64278021	     -9.29319648	     -6.90352063	     -6.24934110	    -13.22546611	     16.08655483	      4.98778171	      8.31323887	     15.33398908	     -5.11606671	     -9.55493441	    -19.46707256	      5.33533665	     16.63135434	      8.98212345	    -10.52149946	      1.63602457	     11.23517933	     33.18415819	     -7.33453499	    -11.19966792	    -43.06737280	   -133.30032844	   -129.38743315	     77.26604876	    119.45331214	     -5.46267153	     -6.97485861	    -19.28590734	    125.42089170	    -29.73187842	     37.81040995	     56.40766167	    121.38249149	    -20.94105699	      4.16103648	    -19.12560429
      0.02000000	      0.95573106	     -1.12366647	    -90.06139038	     -0.04584753	      0.93986036	      0.64458624	     -9.18215762	     -7.01974104	     -6.25631195	    -13.56012566	     16.04421088	      5.02171819	      8.35902022	     15.32537870	     -5.01358692	     -9.49351391	    -19.56945435	      5.27970202	     16.41420024	      9.05841092	    -10.40227158	      1.59621766	     11.15065437	     33.28940569	     -7.39315086	    -11.18553853	    -42.87414103	   -133.79602145	   -129.39468383	     76.63450364	    119.35959020	     -5.19414072	     -6.82828017	    -19.36169745	    125.81383995	    -29.56426501	     38.12435952	     55.96590701	    121.62539773	    -20.60907383	      4.28056570	    -19.19255964
      0.02250000	      1.01861107	     -1.06451612	    -90.08246600	     -0.04525447	      0.93988927	      0.64619682	     -9.04456603	     -7.14000595	     -6.25196100	    -13.88638097	     16.01875427	      5.03485279	      8.41166573	     15.32330394	     -4.91186344	     -9.43439117	    -19.64295815	      5.26594042	     16.20266546	      9.14382219	    -10.29733622	      1.52642519	     11.05012418	     33.38493148	     -7.42168030	    -11.16791943	    -42.69085613	   -134.28715114	   -129.43694211	     76.01041808	    119.28396951	     -4.93466099	     -6.69157143	    -19.45330848	    126.23920931	    -29.41294533	     38.39455803	     55.58820965	    121.86558608	    -20.30835901	      4.39026055	    -19.27501565
      0.02500000	      1.24641539	     -0.95330124	    -90.05431227	     -0.04464961	      0.93966678	      0.64696225	     -8.57902075	     -7.44285830	     -6.21178974	    -14.69911167	     16.13339157	      5.00921493	      8.61192423	     15.51618569	     -4.58472630	     -9.23781113	    -19.82096233	      5.31364515	     15.60756524	      9.42718339	    -10.30916147	      1.24615693	     10.83420660	     33.66688464	     -7.69189211	    -11.03106555	    -42.24955352	   -134.76845095	   -129.45510183	     75.39066392	    119.13510622	     -4.29851833	     -6.45781509	    -19.82554210	    127.14003838	    -29.46562591	     39.18399760	     55.29546873	    122.59406624	    -19.54994600	      4.52169130	    -19.59085444
      0.02750000	      1.22995122	     -0.92148265	    -90.08252505	     -0.04413230	      0.93990360	      0.64935171	     -8.64082125	     -7.45268534	     -6.20504728	    -14.77741808	     16.12013614	      5.00776896	      8.62290389	     15.42186915	     -4.58431969	     -9.20686911	    -19.87303607	      5.28148165	     15.57698872	      9.44143687	    -10.09650007	      1.20557647	     10.82908444	     33.74778023	     -7.60862886	    -11.04207571	    -42.25178079	   -134.98501972	   -129.44231219	     74.90366037	    119.12957160	     -4.26413493	     -6.39988804	    -19.85436421	    127.17112814	    -29.18906272	     39.22410254	     55.24237408	    122.62146191	    -19.50761874	      4.55213433	    -19.61377196
      0.03000000	      1.25890190	     -0.86791191	    -90.12468469	     -0.04317050	      0.94003782	      0.65138767	     -8.59347400	     -7.56040826	     -6.20139254	    -14.98371939	     16.05799642	      4.99558670	      8.65151555	     15.38208612	     -4.48342501	     -9.17532856	    -19.89187316	      5.27519550	     15.49043383	      9.48861538	     -9.92643179	      1.26009252	     10.79603966	     33.82028574	     -7.41763924	    -11.05931152	    -42.05853176	   -135.52692726	   -129.34589512	     74.26551631	    119.13022425	     -4.18955836	     -6.30461125	    -19.94068975	    127.34380156	    -28.96650981	     39.25355371	     54.67018308	    122.68517924	    -19.34840170	      4.72084199	    -19.66189318
      0.03250000	      1.34887956	     -0.79843438	    -90.11758679	     -0.04237873	      0.93983898	      0.65298263	     -8.35296159	     -7.71911794	     -6.20600906	    -15.51283782	     15.96586361	      4.95767946	      8.72776856	     15.40637038	     -4.33002330	     -9.10646012	    -19.95563214	      5.31847913	     15.28543792	      9.59594977	     -9.85672069	      1.17287792	     10.72438499	     33.90802838	     -7.42459934	    -11.01061838	    -41.56588406	   -135.90858096	   -128.96613372	     73.65600428	    119.15860397	     -4.05616950	     -6.18016050	    -20.14525799	    127.86378880	    -28.74615363	     39.44729057	     54.16476536	    122.87658856	    -19.02198802	      4.86052608	    -19.76934092
      0.03500000	      1.31690620	     -0.77400951	    -90.13093009	     -0.04168797	      0.94029012	      0.65494065	     -8.37480698	     -7.75109469	     -6.20317286	    -15.61799645	     15.94467821	      4.95211369	      8.73737648	     15.35473172	     -4.32416462	     -9.08631218	    -19.99330969	      5.30437775	     15.25785613	      9.60660728	     -9.73119689	      1.13746532	     10.72090519	     33.95950356	     -7.41573711	    -11.00829182	    -41.48611121	   -136.02631585	   -128.95873097	     73.25396285	    119.16245820	     -4.03514375	     -6.12888479	    -20.17080027	    127.94581481	    -28.44941547	     39.52457603	     54.22004950	    122.90426994	    -18.97722363	      4.84845195	    -19.78162708
      0.03750000	      1.37347425	     -0.74300441	    -90.14279332	     -0.04071671	      0.94030015	      0.65666185	     -8.19512615	     -7.88964152	     -6.20870041	    -16.07589811	     15.83966043	      4.91380184	      8.78183868	     15.32677066	     -4.18651431	     -9.02675820	    -20.06515726	      5.28146832	     15.13694363	      9.65433941	     -9.65014427	      1.17014241	     10.70784218	     34.08881313	     -7.30921021	    -11.00809394	    -41.07512579	   -136.53948027	   -128.67053397	     72.57222880	    119.18567502	     -3.95519572	     -6.01674996	    -20.29136279	    128.22378288	    -28.22888761	     39.65545763	     53.56322019	    122.98552404	    -18.71143319	      5.00552507	    -19.81432352
